<?xml version="1.0" standalone="no"?>
<!DOCTYPE svg PUBLIC "-//W3C//DTD SVG 20010904//EN"
 "http://www.w3.org/TR/2001/REC-SVG-20010904/DTD/svg10.dtd">
<svg version="1.0" xmlns="http://www.w3.org/2000/svg"
 width="512.000000pt" height="512.000000pt" viewBox="0 0 512.000000 512.000000"
 preserveAspectRatio="xMidYMid meet">
<metadata>
Created by potrace 1.14, written by Peter Selinger 2001-2017
</metadata>
<g transform="translate(0.000000,512.000000) scale(0.100000,-0.100000)"
fill="#000000" stroke="none">
<path d="M1320 5093 c-28 -26 -36 -52 -31 -104 1 -18 23 -42 94 -107 42 -38
52 -42 82 -38 47 8 72 25 86 58 19 47 4 89 -54 145 -84 82 -125 93 -177 46z"/>
<path d="M3700 5113 c-8 -3 -41 -31 -72 -61 -68 -66 -81 -106 -53 -159 23 -42
78 -60 122 -41 33 15 121 104 133 135 13 31 2 74 -24 101 -22 23 -78 36 -106
25z"/>
<path d="M2465 5004 c-265 -30 -482 -132 -659 -309 -129 -129 -217 -272 -269
-440 -34 -107 -37 -130 -44 -271 -7 -145 7 -255 47 -376 110 -330 357 -579
683 -688 l67 -23 0 -123 0 -123 -180 -3 -180 -3 -27 -28 -28 -27 -1 -843 c0
-495 3 -850 9 -861 5 -10 66 -96 136 -190 70 -94 200 -277 289 -407 89 -129
171 -245 182 -257 39 -42 104 -41 141 3 12 13 66 88 120 167 170 248 220 318
350 494 70 94 131 180 136 190 7 15 11 1557 4 1682 0 13 -14 37 -30 53 l-29
29 -176 0 -176 0 0 125 0 124 33 9 c376 105 684 449 752 840 14 79 21 271 11
317 -2 11 -7 40 -11 65 -21 129 -98 310 -182 429 -159 222 -429 391 -698 436
-47 7 -227 13 -270 9z m-95 -3068 l0 -515 -27 -3 c-16 -2 -82 -1 -148 2 l-120
5 -1 505 c0 278 1 508 3 513 3 4 69 7 149 7 l144 0 0 -514z m675 -1 l0 -510
-147 -3 -148 -3 0 516 0 516 147 -3 148 -3 0 -510z m-677 -814 l-3 -96 -145 0
-145 0 0 97 -1 96 149 0 148 -1 -3 -96z m677 -1 l0 -95 -147 -1 -148 0 0 97 0
97 148 -1 147 -2 0 -95z m-105 -298 c0 -2 -25 -38 -56 -81 l-56 -77 -269 0
c-257 1 -269 2 -283 21 -7 11 -32 45 -55 75 -22 30 -41 57 -41 60 0 3 171 5
380 5 209 0 380 -1 380 -3z m-265 -368 c0 -11 -108 -174 -115 -173 -9 0 -121
170 -116 177 6 10 231 7 231 -4z"/>
<path d="M879 3942 c-15 -2 -38 -16 -53 -31 -43 -45 -35 -118 17 -150 26 -17
151 -23 194 -10 77 24 89 141 19 179 -22 11 -126 18 -177 12z"/>
<path d="M4103 3942 c-38 -4 -79 -42 -86 -80 -8 -42 17 -91 55 -106 47 -20
176 -14 212 9 25 16 44 63 38 90 -10 39 -28 65 -53 75 -29 12 -107 18 -166 12z"/>
<path d="M1413 2830 c-52 -33 -123 -115 -127 -146 -8 -64 38 -114 106 -114 25
0 44 13 100 68 59 60 68 73 68 105 0 75 -85 125 -147 87z"/>
<path d="M3633 2843 c-35 -7 -73 -59 -73 -100 0 -32 9 -46 68 -105 62 -61 72
-68 108 -68 71 0 120 78 89 140 -15 29 -119 130 -134 130 -5 0 -15 2 -23 4 -7
2 -23 1 -35 -1z"/>
</g>
</svg>
